<svg width="20" height="20" viewBox="0 0 20 20" fill="none" xmlns="http://www.w3.org/2000/svg">
<path d="M3.23077 2.23077C2.90435 2.23077 2.5913 2.36044 2.36048 2.59125C2.12967 2.82207 2 3.13512 2 3.46154V4.69231C2 5.01873 2.12967 5.33178 2.36048 5.56259C2.5913 5.79341 2.90435 5.92308 3.23077 5.92308H3.84615V17C3.84615 17.6528 4.10549 18.2789 4.56712 18.7406C5.02875 19.2022 5.65485 19.4615 6.30769 19.4615H13.6923C14.3451 19.4615 14.9713 19.2022 15.4329 18.7406C15.8945 18.2789 16.1538 17.6528 16.1538 17V5.92308H16.7692C17.0957 5.92308 17.4087 5.79341 17.6395 5.56259C17.8703 5.33178 18 5.01873 18 4.69231V3.46154C18 3.13512 17.8703 2.82207 17.6395 2.59125C17.4087 2.36044 17.0957 2.23077 16.7692 2.23077H12.4615C12.4615 1.90435 12.3319 1.5913 12.1011 1.36048C11.8702 1.12967 11.5572 1 11.2308 1H8.76923C8.44281 1 8.12976 1.12967 7.89895 1.36048C7.66813 1.5913 7.53846 1.90435 7.53846 2.23077H3.23077ZM6.92308 7.15385C7.08629 7.15385 7.24281 7.21868 7.35822 7.33409C7.47363 7.4495 7.53846 7.60602 7.53846 7.76923V16.3846C7.53846 16.5478 7.47363 16.7044 7.35822 16.8198C7.24281 16.9352 7.08629 17 6.92308 17C6.75987 17 6.60334 16.9352 6.48793 16.8198C6.37253 16.7044 6.30769 16.5478 6.30769 16.3846V7.76923C6.30769 7.60602 6.37253 7.4495 6.48793 7.33409C6.60334 7.21868 6.75987 7.15385 6.92308 7.15385ZM10 7.15385C10.1632 7.15385 10.3197 7.21868 10.4351 7.33409C10.5506 7.4495 10.6154 7.60602 10.6154 7.76923V16.3846C10.6154 16.5478 10.5506 16.7044 10.4351 16.8198C10.3197 16.9352 10.1632 17 10 17C9.83679 17 9.68026 16.9352 9.56486 16.8198C9.44945 16.7044 9.38462 16.5478 9.38462 16.3846V7.76923C9.38462 7.60602 9.44945 7.4495 9.56486 7.33409C9.68026 7.21868 9.83679 7.15385 10 7.15385ZM13.6923 7.76923V16.3846C13.6923 16.5478 13.6275 16.7044 13.5121 16.8198C13.3967 16.9352 13.2401 17 13.0769 17C12.9137 17 12.7572 16.9352 12.6418 16.8198C12.5264 16.7044 12.4615 16.5478 12.4615 16.3846V7.76923C12.4615 7.60602 12.5264 7.4495 12.6418 7.33409C12.7572 7.21868 12.9137 7.15385 13.0769 7.15385C13.2401 7.15385 13.3967 7.21868 13.5121 7.33409C13.6275 7.4495 13.6923 7.60602 13.6923 7.76923Z" fill="#596168"/>
</svg>
