<svg width="20" height="20" viewBox="0 0 20 20" fill="none" xmlns="http://www.w3.org/2000/svg">
<path d="M14.8532 2.14636C14.7594 2.05262 14.6323 1.99997 14.4997 1.99997C14.3671 1.99997 14.24 2.05262 14.1462 2.14636L12.4993 3.79328L16.2061 7.50012L17.8531 5.85419C17.8996 5.80775 17.9366 5.75258 17.9618 5.69183C17.987 5.63109 17.9999 5.56597 17.9999 5.50021C17.9999 5.43445 17.987 5.36933 17.9618 5.30858C17.9366 5.24784 17.8996 5.19267 17.8531 5.14622L14.8532 2.14636ZM15.4992 8.20709L11.7923 4.50025L5.2926 11H5.49959C5.63219 11 5.75937 11.0526 5.85313 11.1464C5.94689 11.2402 5.99957 11.3673 5.99957 11.4999V11.9999H6.49955C6.63215 11.9999 6.75932 12.0526 6.85309 12.1464C6.94685 12.2401 6.99953 12.3673 6.99953 12.4999V12.9999H7.4995C7.63211 12.9999 7.75928 13.0526 7.85304 13.1463C7.94681 13.2401 7.99948 13.3673 7.99948 13.4999V13.9998H8.49946C8.63206 13.9998 8.75923 14.0525 8.853 14.1463C8.94676 14.24 8.99944 14.3672 8.99944 14.4998V14.7068L15.4992 8.20709ZM8.03148 15.6748C8.01044 15.6188 7.9996 15.5595 7.99948 15.4998V14.9998H7.4995C7.3669 14.9998 7.23973 14.9471 7.14597 14.8534C7.0522 14.7596 6.99953 14.6324 6.99953 14.4998V13.9998H6.49955C6.36695 13.9998 6.23977 13.9472 6.14601 13.8534C6.05225 13.7596 5.99957 13.6325 5.99957 13.4999V12.9999H5.49959C5.36699 12.9999 5.23982 12.9472 5.14605 12.8534C5.05229 12.7597 4.99961 12.6325 4.99961 12.4999V11.9999H4.49964C4.43986 11.9998 4.38059 11.989 4.32464 11.9679L4.14565 12.1459C4.098 12.1939 4.06058 12.2511 4.03566 12.3139L2.03574 17.3137C1.99937 17.4046 1.99047 17.5041 2.01014 17.6C2.0298 17.6958 2.07718 17.7838 2.14638 17.853C2.21558 17.9222 2.30357 17.9696 2.39945 17.9893C2.49532 18.0089 2.59486 18 2.68572 17.9637L7.6855 15.9638C7.74836 15.9388 7.80551 15.9014 7.85349 15.8538L8.03148 15.6758V15.6748Z" fill="#596168"/>
</svg>