<svg width="20" height="19" viewBox="0 0 20 19" fill="none" xmlns="http://www.w3.org/2000/svg">
                        <path fill-rule="evenodd" clip-rule="evenodd" d="M14.375 1.49999C14.1288 1.49999 13.885 1.54849 13.6575 1.64272C13.43 1.73694 13.2233 1.87505 13.0492 2.04916C12.8751 2.22327 12.737 2.42997 12.6427 2.65746C12.5485 2.88494 12.5 3.12876 12.5 3.37499C12.5 3.62122 12.5485 3.86504 12.6427 4.09252C12.737 4.32001 12.8751 4.5267 13.0492 4.70081C13.2233 4.87492 13.43 5.01304 13.6575 5.10726C13.885 5.20149 14.1288 5.24999 14.375 5.24999C14.8723 5.24999 15.3492 5.05245 15.7008 4.70081C16.0525 4.34918 16.25 3.87227 16.25 3.37499C16.25 2.87771 16.0525 2.40079 15.7008 2.04916C15.3492 1.69753 14.8723 1.49999 14.375 1.49999ZM11.3125 2.74999C11.4559 2.04356 11.8392 1.40844 12.3973 0.952253C12.9555 0.496064 13.6542 0.246857 14.375 0.246857C15.0958 0.246857 15.7945 0.496064 16.3527 0.952253C16.9108 1.40844 17.2941 2.04356 17.4375 2.74999H20V3.99999H17.4375C17.2941 4.70642 16.9108 5.34154 16.3527 5.79773C15.7945 6.25391 15.0958 6.50312 14.375 6.50312C13.6542 6.50312 12.9555 6.25391 12.3973 5.79773C11.8392 5.34154 11.4559 4.70642 11.3125 3.99999H0V2.74999H11.3125ZM5.625 7.74999C5.12772 7.74999 4.65081 7.94753 4.29917 8.29916C3.94754 8.65079 3.75 9.12771 3.75 9.62499C3.75 10.1223 3.94754 10.5992 4.29917 10.9508C4.65081 11.3024 5.12772 11.5 5.625 11.5C6.12228 11.5 6.59919 11.3024 6.95083 10.9508C7.30246 10.5992 7.5 10.1223 7.5 9.62499C7.5 9.12771 7.30246 8.65079 6.95083 8.29916C6.59919 7.94753 6.12228 7.74999 5.625 7.74999ZM2.5625 8.99999C2.70595 8.29356 3.08921 7.65844 3.64734 7.20225C4.20547 6.74606 4.90415 6.49686 5.625 6.49686C6.34585 6.49686 7.04453 6.74606 7.60266 7.20225C8.16079 7.65844 8.54405 8.29356 8.6875 8.99999H20V10.25H8.6875C8.54405 10.9564 8.16079 11.5915 7.60266 12.0477C7.04453 12.5039 6.34585 12.7531 5.625 12.7531C4.90415 12.7531 4.20547 12.5039 3.64734 12.0477C3.08921 11.5915 2.70595 10.9564 2.5625 10.25H0V8.99999H2.5625ZM14.375 14C13.8777 14 13.4008 14.1975 13.0492 14.5492C12.6975 14.9008 12.5 15.3777 12.5 15.875C12.5 16.3723 12.6975 16.8492 13.0492 17.2008C13.4008 17.5524 13.8777 17.75 14.375 17.75C14.8723 17.75 15.3492 17.5524 15.7008 17.2008C16.0525 16.8492 16.25 16.3723 16.25 15.875C16.25 15.3777 16.0525 14.9008 15.7008 14.5492C15.3492 14.1975 14.8723 14 14.375 14ZM11.3125 15.25C11.4559 14.5436 11.8392 13.9084 12.3973 13.4523C12.9555 12.9961 13.6542 12.7469 14.375 12.7469C15.0958 12.7469 15.7945 12.9961 16.3527 13.4523C16.9108 13.9084 17.2941 14.5436 17.4375 15.25H20V16.5H17.4375C17.2941 17.2064 16.9108 17.8415 16.3527 18.2977C15.7945 18.7539 15.0958 19.0031 14.375 19.0031C13.6542 19.0031 12.9555 18.7539 12.3973 18.2977C11.8392 17.8415 11.4559 17.2064 11.3125 16.5H0V15.25H11.3125Z" fill="#596168"/>
                    </svg>