<svg xmlns="http://www.w3.org/2000/svg" xmlns:xlink="http://www.w3.org/1999/xlink" xml:space="preserve" id="Ebene_1" x="0" y="0" style="enable-background:new 0 0 354.3 188.1" version="1.1" viewBox="0 0 354.3 188.1">
  <style>
    .st0{fill:#fff}.st2{fill:#ffc800}.st3{fill:#ff7800}.st4{fill:#c51718}.st5{fill:#03005f}.st12{fill:none}.st13{fill:#202b78}.st14{fill:#00b6ed}
  </style>
  <path id="Ebene_2" d="M0 5.6h173.9v182.3H0z" class="st0"/>
  <defs>
    <path id="SVGID_1_" d="M0 0h354.3v187.3H0z"/>
  </defs>
  <clipPath id="SVGID_00000166656568011489378190000017988340009897620883_">
    <use xlink:href="#SVGID_1_" style="overflow:visible"/>
  </clipPath>
  <g style="clip-path:url(#SVGID_00000166656568011489378190000017988340009897620883_)">
    <g id="Ohne-Titel">
      <path d="M354.3 182c0 3.3-2.8 6.1-6.1 6.1H208.5c-3.3 0-6.1-2.8-6.1-6.1V11.9c0-3.3 2.8-6.1 6.1-6.1h139.7c3.3 0 6.1 2.8 6.1 6.1V182z" class="st2"/>
      <path d="M347 176.9c0 2.3-1.8 4.1-4 4.1H214.1c-2.3 0-4.1-1.8-4.1-4.1V17.5c0-2.3 1.8-4.1 4.1-4.1h128.8c2.3 0 4 1.8 4 4.1v159.4z" class="st3"/>
      <path d="M341.7 172.6c0 1.5-1.3 3-2.8 3H218.7c-1.5 0-3-1.3-3-2.8V21.5c0-1.5 1.3-3 2.8-3h120.2c1.5 0 3 1.3 3 2.8v151.3z" class="st4"/>
      <path d="M337.4 169.1c0 1.3-1 2.3-2.3 2.3H222c-1.3 0-2.3-1-2.3-2.3V24.8c0-1.3 1-2.3 2.3-2.3h113.1c1.3 0 2.3 1 2.3 2.3v144.3z" class="st5"/>
      <path d="M278.1 160.5c-4.3 0-5.1-1.8-5.1-6.3V147h3.5v7.9c0 2 .2 3 1.5 3s1.8-.8 1.8-3V147h3.3v7.1c.1 4.8-1.2 6.4-5 6.4zm2.3-14.7c-1 0-1.5-.8-1.5-1.8s.5-1.8 1.5-1.8 1.8.5 1.8 1.5v.5c0 .8-.8 1.6-1.8 1.6zm-4.8 0c-1 0-1.8-.8-1.8-1.5 0-1 .5-1.8 1.5-1.8s1.8.5 1.8 1.5v.5c.3.5-.5 1.3-1.5 1.3zm9.9 14.1V147h3.5c4.6 0 6.6 1 6.6 6.3s-2 6.3-6.6 6.3h-3.5v.3zm4.3-2.2c1.8 0 2.5-1 2.5-4.3s-.8-4.3-2.5-4.3h-.8v8.4h.8v.2zm-23.8 2.5c-1.5 0-2.8-.2-4.3-.5l.5-2.3c1 .2 2 .5 3 .5s2-.2 2-1.3-1-1.3-1.8-1.8h-.2c-1.5-1-3-1.8-3-3.8 0-2.5 1.8-3.8 4.8-3.8 1.3 0 2.5.2 3.8.5l-.5 2.3c-.8-.2-1.8-.5-2.8-.5s-1.8.5-1.8 1.3 1 1.3 2 1.8h.2c1.5 1 3.3 1.8 3.3 3.8-.1 2.5-1.9 4-5.2 3.8zm-14.9-20.8c-.2-1.5-1-4.1-1.3-5.1h-10.1c-.5 1-1 3.8-1.3 5.1h-8.9c3.8-12.1 5.6-17.2 9.9-27.8h11.1c4.3 10.6 6.1 15.7 9.9 27.8h-9.3zm-10.2-11.1h7.6c-1-3.5-3-9.9-3.5-11.9-1 1.8-3 8.1-4.1 11.9zm28.9 11.1c-3.8.2-7.1-2.3-7.3-6.1v-22h8.4V130c0 2.3.8 3 3 3h8.4l1.3 6.3-13.8.1zm48.1-27.8h8.6v27.8h-8.4l-.2-27.8zM287 139.4v-28.1h11.6c8.6 0 14.4 3.5 14.4 13.7s-4.8 14.2-14.2 14.2l-11.8.2zm8.6-6h2.3c5.1 0 7.1-2.3 7.1-8.1s-2.5-7.6-7.6-7.6h-2l.2 15.7z" class="st0"/>
      <linearGradient id="SVGID_00000093177727468944031370000000380651341616001667_" x1="124" x2="124" y1="126.16" y2="153.72" gradientTransform="matrix(2.53 0 0 -2.53 -50.62 422.437)" gradientUnits="userSpaceOnUse">
        <stop offset="0" style="stop-color:#1482af"/>
        <stop offset=".02" style="stop-color:#3798bf"/>
        <stop offset=".05" style="stop-color:#6eb9d8"/>
        <stop offset=".08" style="stop-color:#95d1ea"/>
        <stop offset=".11" style="stop-color:#aee0f5"/>
        <stop offset=".12" style="stop-color:#b7e5f9"/>
        <stop offset=".2" style="stop-color:#97daf6"/>
        <stop offset=".33" style="stop-color:#67caf2"/>
        <stop offset=".4" style="stop-color:#00b6ed"/>
        <stop offset=".6" style="stop-color:#00b6ed"/>
        <stop offset=".67" style="stop-color:#67caf2"/>
        <stop offset=".8" style="stop-color:#97daf6"/>
        <stop offset=".88" style="stop-color:#b7e5f9"/>
        <stop offset=".89" style="stop-color:#aee0f5"/>
        <stop offset=".92" style="stop-color:#95d1ea"/>
        <stop offset=".95" style="stop-color:#6eb9d8"/>
        <stop offset=".98" style="stop-color:#3798bf"/>
        <stop offset="1" style="stop-color:#1482af"/>
      </linearGradient>
      <path d="M275.4 32.6c-5.1 0-7.3 3.5-9.4 9.4l-17.7 52.6c-1.5 4.6-3.5 7.1-6.8 7.6v.5h9.1c5.1 0 7.3-3.8 9.4-9.4L277.6 41c1.5-4.6 3.5-7.1 7.1-7.6v-.5c-1.5-.3-9.1-.3-9.3-.3z" style="fill:url(#SVGID_00000093177727468944031370000000380651341616001667_)"/>
      <linearGradient id="SVGID_00000139266601319910351840000000616929651976536728_" x1="130.852" x2="130.852" y1="126.23" y2="153.77" gradientTransform="matrix(2.53 0 0 -2.53 -50.62 422.437)" gradientUnits="userSpaceOnUse">
        <stop offset="0" style="stop-color:#1482af"/>
        <stop offset=".02" style="stop-color:#3798bf"/>
        <stop offset=".05" style="stop-color:#6eb9d8"/>
        <stop offset=".08" style="stop-color:#95d1ea"/>
        <stop offset=".11" style="stop-color:#aee0f5"/>
        <stop offset=".12" style="stop-color:#b7e5f9"/>
        <stop offset=".2" style="stop-color:#97daf6"/>
        <stop offset=".33" style="stop-color:#67caf2"/>
        <stop offset=".4" style="stop-color:#00b6ed"/>
        <stop offset=".6" style="stop-color:#00b6ed"/>
        <stop offset=".67" style="stop-color:#67caf2"/>
        <stop offset=".8" style="stop-color:#97daf6"/>
        <stop offset=".88" style="stop-color:#b7e5f9"/>
        <stop offset=".89" style="stop-color:#aee0f5"/>
        <stop offset=".92" style="stop-color:#95d1ea"/>
        <stop offset=".95" style="stop-color:#6eb9d8"/>
        <stop offset=".98" style="stop-color:#3798bf"/>
        <stop offset="1" style="stop-color:#1482af"/>
      </linearGradient>
      <path d="M292.6 32.6c-5.1 0-7.3 3.5-9.4 9.4l-17.7 52.4c-1.5 4.6-3.5 7.1-6.8 7.6v.5h9.1c5.1 0 7.3-3.8 9.4-9.4l18-52.4c1.5-4.6 3.5-7.1 7.1-7.6v-.5h-9.7z" style="fill:url(#SVGID_00000139266601319910351840000000616929651976536728_)"/>
      <linearGradient id="SVGID_00000005985057739918432770000013572208055781050280_" x1="118.196" x2="118.196" y1="126.09" y2="153.698" gradientTransform="matrix(2.53 0 0 -2.53 -50.62 422.437)" gradientUnits="userSpaceOnUse">
        <stop offset="0" style="stop-color:#1482af"/>
        <stop offset=".02" style="stop-color:#3798bf"/>
        <stop offset=".05" style="stop-color:#6eb9d8"/>
        <stop offset=".08" style="stop-color:#95d1ea"/>
        <stop offset=".11" style="stop-color:#aee0f5"/>
        <stop offset=".12" style="stop-color:#b7e5f9"/>
        <stop offset=".2" style="stop-color:#97daf6"/>
        <stop offset=".33" style="stop-color:#67caf2"/>
        <stop offset=".4" style="stop-color:#00b6ed"/>
        <stop offset=".6" style="stop-color:#00b6ed"/>
        <stop offset=".67" style="stop-color:#67caf2"/>
        <stop offset=".8" style="stop-color:#97daf6"/>
        <stop offset=".88" style="stop-color:#b7e5f9"/>
        <stop offset=".89" style="stop-color:#aee0f5"/>
        <stop offset=".92" style="stop-color:#95d1ea"/>
        <stop offset=".95" style="stop-color:#6eb9d8"/>
        <stop offset=".98" style="stop-color:#3798bf"/>
        <stop offset="1" style="stop-color:#1482af"/>
      </linearGradient>
      <path d="M258.7 32.9c-5.1 0-7.3 3.8-9.4 9.4l-20.5 60.5h5.1c5.1 0 7.3-3.5 9.4-9.4L261 40.8c1.5-4.6 3.5-7.1 7.1-7.6V33l-9.4-.1z" style="fill:url(#SVGID_00000005985057739918432770000013572208055781050280_)"/>
      <linearGradient id="SVGID_00000085240594318155266930000015421743031464213410_" x1="135.581" x2="143.631" y1="141.259" y2="144.589" gradientTransform="matrix(2.53 0 0 -2.53 -50.62 422.437)" gradientUnits="userSpaceOnUse">
        <stop offset=".2" style="stop-color:#00b6ed"/>
        <stop offset=".32" style="stop-color:#67caf2"/>
        <stop offset=".55" style="stop-color:#97daf6"/>
        <stop offset=".69" style="stop-color:#b7e5f9"/>
        <stop offset=".73" style="stop-color:#aee0f5"/>
        <stop offset=".79" style="stop-color:#95d1ea"/>
        <stop offset=".86" style="stop-color:#6eb9d8"/>
        <stop offset=".95" style="stop-color:#3798bf"/>
        <stop offset="1" style="stop-color:#1482af"/>
      </linearGradient>
      <path d="M312.3 57.2c-2-4-4-4.3-7.9-4.3H295l-3.5 10.9h18.2c2.3-.2 4.8.5 6.3 2.3h.5c-.1-.3-3.9-7.9-4.2-8.9z" style="fill:url(#SVGID_00000085240594318155266930000015421743031464213410_)"/>
      <linearGradient id="SVGID_00000124149233439726248020000017234126135275642503_" x1="133.832" x2="145.832" y1="134.286" y2="139.246" gradientTransform="matrix(2.53 0 0 -2.53 -50.62 422.437)" gradientUnits="userSpaceOnUse">
        <stop offset=".3" style="stop-color:#00b6ed"/>
        <stop offset=".41" style="stop-color:#67caf2"/>
        <stop offset=".63" style="stop-color:#97daf6"/>
        <stop offset=".76" style="stop-color:#b7e5f9"/>
        <stop offset=".79" style="stop-color:#aee0f5"/>
        <stop offset=".83" style="stop-color:#95d1ea"/>
        <stop offset=".89" style="stop-color:#6eb9d8"/>
        <stop offset=".96" style="stop-color:#3798bf"/>
        <stop offset="1" style="stop-color:#1482af"/>
      </linearGradient>
      <path d="M318.9 72.9c-1.8-3.8-4-4.6-7.6-4.6H290l-3.8 10.9h30.1c2.3-.2 4.8.8 6.3 2.5h.2c.1 0-3.4-8.1-3.9-8.8z" style="fill:url(#SVGID_00000124149233439726248020000017234126135275642503_)"/>
      <linearGradient id="SVGID_00000026124922096540310660000006762723884784220577_" x1="132.013" x2="147.934" y1="127.293" y2="133.883" gradientTransform="matrix(2.53 0 0 -2.53 -50.62 422.437)" gradientUnits="userSpaceOnUse">
        <stop offset="0" style="stop-color:#73cdf3"/>
        <stop offset=".12" style="stop-color:#62c8f1"/>
        <stop offset=".24" style="stop-color:#58c4f0"/>
        <stop offset=".4" style="stop-color:#00b6ed"/>
        <stop offset=".5" style="stop-color:#67caf2"/>
        <stop offset=".69" style="stop-color:#97daf6"/>
        <stop offset=".81" style="stop-color:#b7e5f9"/>
        <stop offset=".83" style="stop-color:#aee0f5"/>
        <stop offset=".87" style="stop-color:#95d1ea"/>
        <stop offset=".92" style="stop-color:#6eb9d8"/>
        <stop offset=".97" style="stop-color:#3798bf"/>
        <stop offset="1" style="stop-color:#1482af"/>
      </linearGradient>
      <path d="M325.7 89.1c-1-3.3-4.3-5.6-7.9-5.1h-33.2l-3 9.1c-.2.8-.5 1.3-.8 1.8h42c2.3-.2 4.6.8 6.1 2.3h.2c.1.2-3.1-7.6-3.4-8.1z" style="fill:url(#SVGID_00000026124922096540310660000006762723884784220577_)"/>
    </g>
  </g>
  <g id="ALDI_Nord_Logo_2021">
    <g id="Logo">
      <path d="M0 5.6h173.9v182.3H0z" class="st12"/>
      <path d="M170.6 184.6V8.9H3.3v175.6h167.3v.1zm-6.7-6.7H10V15.6h153.9v162.3z" class="st4"/>
      <path d="M18.4 134.4h137.2v35.1H18.4v-35.1z" class="st13"/>
      <path d="M143 165.3v-26.8h-12v26.8h12zm-14.7-13.4c0-7.4-5.9-13.4-13.3-13.4H97.2v26.8H115c7.4 0 13.3-6 13.3-13.4zm-11.1 0c0 3.2-2.4 5.8-5.4 5.8h-2.6v-11.6h2.6c3 0 5.4 2.6 5.4 5.8zm-45 13.4h22.7v-7.7H84.4v-19H72.2v26.7zm-13.7 0h12.1l-13.7-26.8H44.6l-13.7 26.8H43l1.3-2.8h12.8l1.4 2.8zm-4.9-9.8H48l2.7-5.9 2.9 5.9z" class="st0"/>
      <path d="M133.4 131c1.9-3.3 2.8-7.1 2.8-11-.1-4.5-1.9-7.4-4.5-11.2L94.5 53.1l6.1-9.1 41.4 61.9c3.4 5.1 5.4 8.9 5.5 14.6 0 3.7-.9 7.3-2.5 10.7h-11.6zm-47-107L32 105.8c-3.4 5.1-5.4 8.9-5.5 14.6 0 3.7.9 7.3 2.5 10.7h11.5c-1.9-3.3-2.8-7.1-2.8-11 .1-4.5 2-7.4 4.5-11.2L98.4 24h-12zm-34 87h65.8l-4.5-6.7H56.8l-2.6 3.9c-.6.9-1.2 1.8-1.8 2.8z" class="st14"/>
      <path d="M146.7 131c.3-.7.5-1.1.7-1.7.9-2.4 2-5.6 1.9-9-.1-5.9-2.2-9.9-5.6-15.1l-42-62.8 4.9-7.3 45.7 68.6c4 6 5.9 9.5 5.9 15.1 0 6.4-1.7 9.2-3 12.1h-8.5zm-25.7 0h10.5c2-3.3 3-7.1 2.9-10.9-.1-4.2-1.8-6.9-4.3-10.7L93.5 54.6l-4.7 7.1 31 46.5c2.8 4.1 5.1 7.9 5.3 11.7.1 4-1.3 8.1-4.1 11.1zM74.6 24l-52.8 79.8c-4 6-5.9 9.5-5.9 15.1 0 6.4 1.7 9.2 3 12.1h8.4c-.2-.5-.5-1.1-.7-1.7-1.1-2.9-1.7-5.9-1.7-9 .1-5.9 2.2-9.9 5.6-15.1l54-81.3h-9.9zm25.6 0-56.5 85.4c-2.5 3.8-4.2 6.5-4.3 10.7-.1 3.8.9 7.6 2.9 10.9H53c-2.8-3-4.2-7.1-4-11.2.1-1 .2-2 .5-3h71.9c-.5-1.5-1.2-3-2.2-4.3H51.4c.8-1.4 1.8-3 2.8-4.4l3.7-5.6h54.7l-3-4.5H60.9L110 24h-9.8z" class="st13"/>
    </g>
  </g>
</svg>
