<svg width="17" height="16" viewBox="0 0 17 16" fill="none" xmlns="http://www.w3.org/2000/svg">
<path d="M7.4375 11L12.3958 6.0625L11.3333 5L7.4375 8.875L5.66667 7.125L4.60417 8.1875L7.4375 11ZM8.5 16C7.40278 16 6.36806 15.7917 5.39583 15.375C4.42361 14.9583 3.57292 14.3854 2.84375 13.6562C2.11458 12.9271 1.54167 12.0764 1.125 11.1042C0.708333 10.1319 0.5 9.09722 0.5 8C0.5 6.88889 0.708333 5.85069 1.125 4.88542C1.54167 3.92014 2.11458 3.07292 2.84375 2.34375C3.57292 1.61458 4.42361 1.04167 5.39583 0.625C6.36806 0.208333 7.40278 0 8.5 0C9.61111 0 10.6493 0.208333 11.6146 0.625C12.5799 1.04167 13.4271 1.61458 14.1562 2.34375C14.8854 3.07292 15.4583 3.92014 15.875 4.88542C16.2917 5.85069 16.5 6.88889 16.5 8C16.5 9.09722 16.2917 10.1319 15.875 11.1042C15.4583 12.0764 14.8854 12.9271 14.1562 13.6562C13.4271 14.3854 12.5799 14.9583 11.6146 15.375C10.6493 15.7917 9.61111 16 8.5 16Z" fill="white"/>
</svg>
