<svg xmlns="http://www.w3.org/2000/svg" width="231.002px" height="49.998px" viewBox="0 0 231.002 49.998">
<path fill="#EB0000" d="M219.523,48.984V28.08c0-4.467-1.802-6.293-5.006-6.293c-3.203,0-6.004,2.843-6.004,7.173v20.027h-11.279
	V13.533h10.88v5.411h0.132c0,0,2.402-6.426,10.41-6.426s12.346,4.398,12.346,13.6v22.869h-11.479V48.984L219.523,48.984z
	 M146.02,48.984h13.347l-12.748-22.193l12.347-13.259h-13.947l-10.143,12.786V0h-11.146v48.984h11.146v-9.742l3.936-4.398
	L146.02,48.984L146.02,48.984L146.02,48.984z M182.77,31.256c0,6.427-3.205,9.675-7.209,9.675c-4.003,0-7.207-3.248-7.207-9.675
	c0-6.426,3.204-9.674,7.207-9.674C179.564,21.583,182.77,24.831,182.77,31.256L182.77,31.256L182.77,31.256z M156.607,31.256
	c0,11.3,7.342,18.742,18.953,18.742c11.612,0,18.953-7.441,18.953-18.742c0-11.297-7.341-18.74-18.953-18.74
	C163.949,12.517,156.607,19.959,156.607,31.256L156.607,31.256L156.607,31.256z M91.832,48.984h11.545V0H91.832V48.984
	L91.832,48.984L91.832,48.984z M65.905,48.984h11.612V33.356c0-6.902,2.535-9.472,8.007-9.472c1.937,0,3.737,0.271,3.737,0.271
	V12.72c0,0-1-0.204-2.535-0.204c-8.009,0-9.476,7.037-9.476,7.037h-0.134v-6.021H65.905V48.984L65.905,48.984L65.905,48.984z
	 M107.781,48.984h11.546V13.533h-11.546V48.984L107.781,48.984L107.781,48.984z M107.781,9.202h11.546V0h-11.546V9.202
	L107.781,9.202L107.781,9.202z M25.626,31.256c0,6.427-3.204,9.675-6.941,9.675s-6.94-3.248-6.94-9.675
	c0-6.426,3.203-9.674,6.94-9.674C22.422,21.583,25.626,24.831,25.626,31.256L25.626,31.256L25.626,31.256z M31.499,45.332
	c3.136,2.977,7.808,4.666,13.013,4.666c12.612,0,17.284-7.441,18.285-12.041H51.452c0,0-1.268,3.654-6.473,3.654
	c-4.738,0-6.941-2.979-7.407-7.241h25.425c0,0,0.067-0.608,0.067-1.759c0-12.788-7.207-20.094-18.552-20.094
	c-5.205,0-9.877,1.692-13.013,4.668c-3.204-2.977-7.607-4.668-12.813-4.668C7.34,12.517,0,19.959,0,31.256
	c0,11.3,7.34,18.742,18.685,18.742C23.892,49.998,28.295,48.309,31.499,45.332L31.499,45.332L31.499,45.332z M37.571,27.199
	c0.467-3.586,2.669-6.698,6.94-6.698c4.205,0,6.405,3.112,6.874,6.698H37.571L37.571,27.199L37.571,27.199z"/>
</svg>
