<svg width="24" height="24" viewBox="0 0 24 24" fill="none" xmlns="http://www.w3.org/2000/svg">
<mask id="mask0_131_3609" style="mask-type:alpha" maskUnits="userSpaceOnUse" x="0" y="0" width="24" height="24">
<rect width="24" height="24" fill="#1F1F1F"/>
</mask>
<g mask="url(#mask0_131_3609)">
<path d="M14.25 21.4C13.8667 21.7833 13.3917 21.975 12.825 21.975C12.2583 21.975 11.7833 21.7833 11.4 21.4L2.6 12.6C2.41667 12.4167 2.27083 12.2 2.1625 11.95C2.05417 11.7 2 11.4333 2 11.15V4C2 3.45 2.19583 2.97917 2.5875 2.5875C2.97917 2.19583 3.45 2 4 2H11.15C11.4333 2 11.7 2.05417 11.95 2.1625C12.2 2.27083 12.4167 2.41667 12.6 2.6L21.4 11.425C21.7833 11.8083 21.975 12.2792 21.975 12.8375C21.975 13.3958 21.7833 13.8667 21.4 14.25L14.25 21.4ZM6.5 8C6.91667 8 7.27083 7.85417 7.5625 7.5625C7.85417 7.27083 8 6.91667 8 6.5C8 6.08333 7.85417 5.72917 7.5625 5.4375C7.27083 5.14583 6.91667 5 6.5 5C6.08333 5 5.72917 5.14583 5.4375 5.4375C5.14583 5.72917 5 6.08333 5 6.5C5 6.91667 5.14583 7.27083 5.4375 7.5625C5.72917 7.85417 6.08333 8 6.5 8Z" fill="#1F1F1F"/>
</g>
</svg>
