<svg data-name="drei" xmlns="http://www.w3.org/2000/svg" width="65" height="82"><path class="cls-1" d="M53.6 34.5c-.7-.5-1.4-1.1-1.8-1.4.2-.3.5-.8.8-1.2 1.7-2.5 5-7.2 5-14a15.38 15.38 0 00-4.8-11.3C49.3 3.2 43.9 1 36 1c-7.5 0-16 2.5-23.3 6.8a32.76 32.76 0 00-7.9 6.1c-1.9 2-3 3.9-3 5.6a2.88 2.88 0 00.9 2.1c1.1 1.1 3 1.5 5.4 1.8a74.1 74.1 0 008.5.3h.6a68.81 68.81 0 0110.6.5 13.61 13.61 0 012.4.6c.5.3.7.5.7.8a1.26 1.26 0 01-.4.7c-1.1 1.1-3.8 2.6-6.3 4.4a23.9 23.9 0 00-3.3 2.7 4.34 4.34 0 00-1.5 2.9 3.91 3.91 0 001.7 3c3 2.3 9.3 2.9 12.6 3.5a5.78 5.78 0 013.7 1.9 3.88 3.88 0 01.7 2.4 9.19 9.19 0 01-2.9 7 9.39 9.39 0 01-6.6 2.5h-.3a9.15 9.15 0 00.1-1.6 10.34 10.34 0 00-3.5-8 13.46 13.46 0 00-8.9-3 13.61 13.61 0 00-10.5 4.6 14.86 14.86 0 00-3.8 10C1.4 64 4 69.7 9.1 73.9S21.7 81 31.5 81a36.3 36.3 0 0021.6-7.1A26.08 26.08 0 0064 52.3c0-10.2-6.8-15.2-10.4-17.8zm-31.1.7a36.08 36.08 0 015-3.7 33.05 33.05 0 004.2-3 4.07 4.07 0 001.8-3 2.9 2.9 0 00-1-2.3c-1.2-1.1-3.2-1.7-5.7-1.9A79.63 79.63 0 0018 21h-.9c-2.6 0-4.7 0-6.3-.1a71.15 71.15 0 007.9-3.9c4.7-2.5 9.9-5.3 14.9-6.6a7 7 0 00-1.9 4 1.61 1.61 0 00.3.9 1.25 1.25 0 001.1.4 9.21 9.21 0 003-.7 16.58 16.58 0 015.3-1.1 9.18 9.18 0 015.5 1.8 5.57 5.57 0 00-3 1 2.2 2.2 0 00-.9 1.6 3.37 3.37 0 001.1 2 7.16 7.16 0 012.3 5 8.84 8.84 0 01-1.7 5V30a6.16 6.16 0 00-.9-3.4 1.8 1.8 0 00-1.5-.7c-1 0-1.9.8-3.2 1.9a24 24 0 01-3.6 2.7c-6.2 3.9-9.5 5.4-11.9 5.6-.9.2-2.2.1-1.1-.9zm5.7 23.9a12.85 12.85 0 008.7-3.1 12.22 12.22 0 003.8-9 6 6 0 00-1.5-4.2c5.2 1.2 10.6 3.9 13.6 7.9a11 11 0 00-3.2-.6c-1 0-1.7 1-1.7 2.2a7.44 7.44 0 00.5 2.2 17 17 0 011 5.1 12.11 12.11 0 01-2 6.5 7.19 7.19 0 00-1.3-4.4 2 2 0 00-1.5-.8 1.9 1.9 0 00-1.5.8 14 14 0 00-1.2 1.8 16.27 16.27 0 01-10.7 8.8 7 7 0 001-3.1 3 3 0 00-.2-1 1.4 1.4 0 00-1.2-.9 10.22 10.22 0 00-2.7.6 19.45 19.45 0 01-5.8 1 11.65 11.65 0 01-7.2-2.5 4 4 0 002.2-.9 1.9 1.9 0 00.8-1.5c0-.8-.7-1.4-1.4-2.1-1.1-1-2.4-2.2-2.4-4.2a5.44 5.44 0 01.4-2 5.85 5.85 0 001 1.7 3.12 3.12 0 002.2 1.1 1.51 1.51 0 001.5-.9 3.89 3.89 0 00.2-1.5 1.61 1.61 0 01.6-1.3 2 2 0 011.4-.6 3.24 3.24 0 012.7 1.6 6.12 6.12 0 01.9 3.5 4.64 4.64 0 01-.4 2.1l-.3.7.6-.4a8.13 8.13 0 002.3-2.8 1.08 1.08 0 00.8.2zM5.1 20.3c-.4-.2-.6-.4-.6-.8 0-1 .9-2.5 2.6-4.2 5-5.1 16.8-11.6 28.9-11.6 6.1 0 11.1 1.5 14.4 4.3a12.5 12.5 0 014.5 9.8c0 5.9-2.8 10-4.5 12.5-.9 1.3-1.4 2-1.4 2.8a2.29 2.29 0 00.8 1.7 13.87 13.87 0 002.1 1.7c3.5 2.6 9.3 6.9 9.3 15.7a23.68 23.68 0 01-9.8 19.5 34.14 34.14 0 01-20 6.5C13.3 78.2 4 68.1 4 58.3a12.69 12.69 0 013.1-8.2 11.34 11.34 0 018.5-3.8 12.66 12.66 0 016.6 1.8 8.24 8.24 0 013.6 7.2v.3a4.58 4.58 0 00-.8-1.3 4.45 4.45 0 00-3.6-1.7 3.63 3.63 0 00-3.6 3.5c0 .4 0 .6-.1.7v.1a1.93 1.93 0 01-1.5-1 4.77 4.77 0 01-.8-2.9v-.8l.1-.6-.4.4a8.39 8.39 0 00-2.5 5.5 7.44 7.44 0 002.8 5.4l.6.6c.1.1.2.2.2.3a.1.1 0 00.1.1c0 .1-.2.3-.7.5a7.17 7.17 0 01-2.5.4 7.08 7.08 0 01-1.4-.1h-.5l.3.4c3.5 4.1 7.3 5.3 10.6 5.2a25.08 25.08 0 006.2-1 10.18 10.18 0 011.8-.5c.2 0 .2 0 .3.1a1 1 0 01.1.3 5.38 5.38 0 01-.8 2.2 9.2 9.2 0 01-1.9 2.5l-.4.4.6-.1C38.1 72.9 41.5 67 43.1 64a7.38 7.38 0 01.8-1.3 2 2 0 01.5-.5c.1 0 .2.1.4.3a9.52 9.52 0 01.9 4.5 21.05 21.05 0 01-.2 2.5l-.1.6.4-.4c3.8-3.5 4.9-7.2 4.9-10.3a18.9 18.9 0 00-1-5.7 9.54 9.54 0 01-.4-1.7c0-.3 0-.4.1-.5s.1-.1.3-.2a14.14 14.14 0 015.8 1.7l.4.2-.2-.5c-3-6.8-10-9.9-16.7-11.6a81.94 81.94 0 00-9.5-1.8 35.24 35.24 0 01-5.1-1.2l-.6-.3c3.9-.5 8.5-3.2 12.7-5.9a27 27 0 003.7-2.8c.5-.4 1-.8 1.4-1.1a1.63 1.63 0 01.9-.4.76.76 0 01.4.2 4.63 4.63 0 01.6 2.8 8.85 8.85 0 01-.4 2.9l-.1.5.4-.3a10 10 0 004.9-8.3 9.17 9.17 0 00-2.7-6.1 2.65 2.65 0 01-.5-.6 1.38 1.38 0 00-.3-.4c0-.1.1-.2.3-.4a5.81 5.81 0 013.2-.8 8.92 8.92 0 012.2.3l.5.1-.3-.4a11.09 11.09 0 00-9-4.7 18.12 18.12 0 00-5.8 1.1 6.83 6.83 0 01-2.2.5h-.1a5.27 5.27 0 011.1-2.4 9.92 9.92 0 013.2-2.8l.5-.3H37c-5.8 0-13.3 4.2-18.8 7.1-3.7 1.7-10.9 5.9-13.1 4.7z"/></svg>