<svg width="34" height="42" viewBox="0 0 34 42" fill="none" xmlns="http://www.w3.org/2000/svg">
<path d="M15.85 25.7L2.24997 24.1C1.61664 24.0333 1.19997 23.6917 0.999973 23.075C0.799973 22.4583 0.933306 21.9333 1.39997 21.5L23.4 1.30001C23.5333 1.20001 23.675 1.11668 23.825 1.05001C23.975 0.983346 24.2 0.950012 24.5 0.950012C25 0.950012 25.3833 1.15835 25.65 1.57501C25.9166 1.99168 25.9166 2.41668 25.65 2.85001L18.15 16.3L31.75 17.9C32.3833 17.9667 32.8 18.3083 33 18.925C33.2 19.5417 33.0666 20.0667 32.6 20.5L10.6 40.7C10.4666 40.8 10.325 40.8834 10.175 40.95C10.025 41.0167 9.79997 41.05 9.49997 41.05C8.99997 41.05 8.61664 40.8417 8.34997 40.425C8.08331 40.0083 8.08331 39.5834 8.34997 39.15L15.85 25.7Z" fill="#FAC420"/>
</svg>
