<svg width="44" height="32" viewBox="0 0 44 32" fill="none" xmlns="http://www.w3.org/2000/svg">
<path d="M9.2059 31.95C7.56863 31.95 6.175 31.3833 5.025 30.25C3.875 29.1167 3.3 27.7167 3.3 26.05H3C2.175 26.05 1.46875 25.7563 0.88125 25.1688C0.29375 24.5813 0 23.875 0 23.05V3C0 2.2 0.3 1.5 0.9 0.9C1.5 0.3 2.2 0 3 0H28.95C29.775 0 30.4813 0.29375 31.0688 0.88125C31.6562 1.46875 31.95 2.175 31.95 3V8.35H36.45C36.7 8.35 36.925 8.4 37.125 8.5C37.325 8.6 37.5 8.75 37.65 8.95L43.7 17C43.8 17.125 43.875 17.2625 43.925 17.4125C43.975 17.5625 44 17.725 44 17.9V24.55C44 24.975 43.8563 25.3312 43.5688 25.6187C43.2813 25.9062 42.925 26.05 42.5 26.05H40.45C40.45 27.7167 39.877 29.1167 38.7309 30.25C37.5848 31.3833 36.1931 31.95 34.5559 31.95C32.9186 31.95 31.525 31.3833 30.375 30.25C29.225 29.1167 28.65 27.7167 28.65 26.05H15.1C15.1 27.7167 14.527 29.1167 13.3809 30.25C12.2348 31.3833 10.8431 31.95 9.2059 31.95ZM9.2 28.95C10 28.95 10.6833 28.6667 11.25 28.1C11.8167 27.5333 12.1 26.85 12.1 26.05C12.1 25.25 11.8167 24.5667 11.25 24C10.6833 23.4333 10 23.15 9.2 23.15C8.4 23.15 7.71667 23.4333 7.15 24C6.58333 24.5667 6.3 25.25 6.3 26.05C6.3 26.85 6.58333 27.5333 7.15 28.1C7.71667 28.6667 8.4 28.95 9.2 28.95ZM34.55 28.95C35.35 28.95 36.0333 28.6667 36.6 28.1C37.1667 27.5333 37.45 26.85 37.45 26.05C37.45 25.25 37.1667 24.5667 36.6 24C36.0333 23.4333 35.35 23.15 34.55 23.15C33.75 23.15 33.0667 23.4333 32.5 24C31.9333 24.5667 31.65 25.25 31.65 26.05C31.65 26.85 31.9333 27.5333 32.5 28.1C33.0667 28.6667 33.75 28.95 34.55 28.95ZM31.95 18.75H41.25L35.7 11.35H31.95V18.75Z" fill="#FAC420"/>
</svg>
