<svg width="24" height="24" viewBox="0 0 24 24" fill="none" xmlns="http://www.w3.org/2000/svg">
<mask id="mask0_131_3619" style="mask-type:alpha" maskUnits="userSpaceOnUse" x="0" y="0" width="24" height="24">
<rect width="24" height="24" fill="#1F1F1F"/>
</mask>
<g mask="url(#mask0_131_3619)">
<path d="M5.29993 5C4.93327 5 4.63743 4.84583 4.41244 4.5375C4.18744 4.22917 4.17493 3.9 4.37493 3.55C4.6416 3.08333 5.0041 2.70833 5.46243 2.425C5.92077 2.14167 6.43327 2 6.99993 2C7.18327 2 7.35827 1.95833 7.52493 1.875C7.6916 1.79167 7.8166 1.65833 7.89994 1.475C7.98327 1.325 8.09577 1.20833 8.23744 1.125C8.3791 1.04167 8.5416 1 8.72494 1C9.10827 1 9.39994 1.15833 9.59994 1.475C9.79994 1.79167 9.80827 2.11667 9.62494 2.45C9.35827 2.91667 8.99577 3.29167 8.53744 3.575C8.0791 3.85833 7.5666 4 6.99993 4C6.8166 4 6.6416 4.04583 6.47494 4.1375C6.30827 4.22917 6.18327 4.35833 6.09994 4.525C6.0166 4.69167 5.89993 4.8125 5.74993 4.8875C5.59993 4.9625 5.44993 5 5.29993 5ZM4.99993 21C4.7166 21 4.4791 20.9042 4.28744 20.7125C4.09577 20.5208 3.99993 20.2833 3.99993 20V11.625L2.99994 12.4C2.7666 12.5667 2.5166 12.6333 2.24993 12.6C1.98327 12.5667 1.7666 12.4333 1.59993 12.2C1.43327 11.9667 1.3666 11.7167 1.39993 11.45C1.43327 11.1833 1.55827 10.9667 1.77493 10.8L3.99993 9.1V7C3.99993 6.71667 4.09577 6.47917 4.28744 6.2875C4.4791 6.09583 4.7166 6 4.99993 6C5.28327 6 5.52077 6.09583 5.71243 6.2875C5.9041 6.47917 5.99993 6.71667 5.99993 7V7.575L11.3999 3.475C11.4833 3.40833 11.5749 3.35417 11.6749 3.3125C11.7749 3.27083 11.8833 3.25 11.9999 3.25C12.1166 3.25 12.2249 3.27083 12.3249 3.3125C12.4249 3.35417 12.5166 3.40833 12.5999 3.475L22.2249 10.8C22.4416 10.9667 22.5666 11.1833 22.5999 11.45C22.6333 11.7167 22.5666 11.9667 22.3999 12.2C22.2333 12.4167 22.0166 12.5417 21.7499 12.575C21.4833 12.6083 21.2416 12.5417 21.0249 12.375L19.9999 11.625V20C19.9999 20.2833 19.9041 20.5208 19.7124 20.7125C19.5208 20.9042 19.2833 21 18.9999 21H12.9999V16C12.9999 15.7167 12.9041 15.4792 12.7124 15.2875C12.5208 15.0958 12.2833 15 11.9999 15C11.7166 15 11.4791 15.0958 11.2874 15.2875C11.0958 15.4792 10.9999 15.7167 10.9999 16V21H4.99993Z" fill="#1F1F1F"/>
</g>
</svg>
