<svg width="43" height="42" viewBox="0 0 43 42" fill="none" xmlns="http://www.w3.org/2000/svg">
<rect x="1.6665" y="1" width="40" height="40" rx="20" fill="white"/>
<mask id="mask0_193_10247" style="mask-type:alpha" maskUnits="userSpaceOnUse" x="11" y="11" width="21" height="20">
<rect x="11.9985" y="11" width="20" height="20" fill="#219653"/>
</mask>
<g mask="url(#mask0_193_10247)">
<path d="M17.0818 29.3337C16.3596 29.3337 15.7519 29.0871 15.2589 28.5941C14.7658 28.101 14.5193 27.4934 14.5193 26.7712V24.9587C14.5193 24.7225 14.6061 24.5177 14.7797 24.3441C14.9533 24.1705 15.1582 24.0837 15.3943 24.0837H16.9776V13.3545C16.9776 13.1462 17.0366 13.0385 17.1547 13.0316C17.2728 13.0246 17.4082 13.0975 17.561 13.2503L18.2276 13.917L19.1443 13.0003C19.2415 12.9031 19.3526 12.8545 19.4776 12.8545C19.6026 12.8545 19.7137 12.9031 19.811 13.0003L20.7276 13.917L21.6443 13.0003C21.7415 12.9031 21.8526 12.8545 21.9776 12.8545C22.1026 12.8545 22.2137 12.9031 22.311 13.0003L23.2276 13.917L24.1443 13.0003C24.2415 12.9031 24.3526 12.8545 24.4776 12.8545C24.6026 12.8545 24.7137 12.9031 24.811 13.0003L25.7276 13.917L26.6443 13.0003C26.7415 12.9031 26.8526 12.8545 26.9776 12.8545C27.1026 12.8545 27.2137 12.9031 27.311 13.0003L28.2276 13.917L28.8943 13.2503C29.0471 13.0975 29.1825 13.0281 29.3005 13.042C29.4186 13.0559 29.4776 13.16 29.4776 13.3545V26.7712C29.4776 27.4934 29.2311 28.101 28.738 28.5941C28.245 29.0871 27.6373 29.3337 26.9151 29.3337H17.0818ZM26.936 27.5837C27.1721 27.5837 27.3665 27.5038 27.5193 27.3441C27.6721 27.1844 27.7485 26.9864 27.7485 26.7503V15.2295H18.7068V24.0837H25.2276C25.4637 24.0837 25.6686 24.1705 25.8422 24.3441C26.0158 24.5177 26.1026 24.7225 26.1026 24.9587V26.7503C26.1026 26.9864 26.1825 27.1844 26.3422 27.3441C26.5019 27.5038 26.6998 27.5837 26.936 27.5837ZM20.3318 18.5837C20.0957 18.5837 19.8943 18.4969 19.7276 18.3232C19.561 18.1496 19.4776 17.9448 19.4776 17.7087C19.4776 17.4725 19.5644 17.2677 19.738 17.0941C19.9116 16.9205 20.1165 16.8337 20.3526 16.8337H23.6235C23.8596 16.8337 24.0644 16.9205 24.238 17.0941C24.4116 17.2677 24.4985 17.4725 24.4985 17.7087C24.4985 17.9448 24.4116 18.1496 24.238 18.3232C24.0644 18.4969 23.8596 18.5837 23.6235 18.5837H20.3318ZM20.3318 21.1045C20.0957 21.1045 19.8943 21.0177 19.7276 20.8441C19.561 20.6705 19.4776 20.4656 19.4776 20.2295C19.4776 19.9934 19.5644 19.7885 19.738 19.6149C19.9116 19.4413 20.1165 19.3545 20.3526 19.3545H23.6235C23.8596 19.3545 24.0644 19.4413 24.238 19.6149C24.4116 19.7885 24.4985 19.9934 24.4985 20.2295C24.4985 20.4656 24.4116 20.6705 24.238 20.8441C24.0644 21.0177 23.8596 21.1045 23.6235 21.1045H20.3318ZM26.1443 18.5837C25.8943 18.5837 25.686 18.4969 25.5193 18.3232C25.3526 18.1496 25.2693 17.9448 25.2693 17.7087C25.2693 17.4587 25.3526 17.2503 25.5193 17.0837C25.686 16.917 25.8943 16.8337 26.1443 16.8337C26.3804 16.8337 26.5853 16.917 26.7589 17.0837C26.9325 17.2503 27.0193 17.4587 27.0193 17.7087C27.0193 17.9448 26.9325 18.1496 26.7589 18.3232C26.5853 18.4969 26.3804 18.5837 26.1443 18.5837ZM26.1443 21.1045C25.8943 21.1045 25.686 21.0177 25.5193 20.8441C25.3526 20.6705 25.2693 20.4656 25.2693 20.2295C25.2693 19.9795 25.3526 19.7712 25.5193 19.6045C25.686 19.4378 25.8943 19.3545 26.1443 19.3545C26.3804 19.3545 26.5853 19.4378 26.7589 19.6045C26.9325 19.7712 27.0193 19.9795 27.0193 20.2295C27.0193 20.4656 26.9325 20.6705 26.7589 20.8441C26.5853 21.0177 26.3804 21.1045 26.1443 21.1045Z" fill="#219653"/>
</g>
<rect x="1.6665" y="1" width="40" height="40" rx="20" stroke="#219653" stroke-width="2"/>
</svg>
