<svg width="42" height="42" viewBox="0 0 42 42" fill="none" xmlns="http://www.w3.org/2000/svg">
<rect x="1" y="1" width="40" height="40" rx="20" fill="white"/>
<mask id="mask0_193_10240" style="mask-type:alpha" maskUnits="userSpaceOnUse" x="11" y="11" width="20" height="20">
<rect x="11" y="11" width="20" height="20" fill="#219653"/>
</mask>
<g mask="url(#mask0_193_10240)">
<path d="M14.5 27C14.0972 27 13.7465 26.8507 13.4479 26.5521C13.1493 26.2535 13 25.9028 13 25.5V16.5C13 16.0972 13.1493 15.7465 13.4479 15.4479C13.7465 15.1493 14.0972 15 14.5 15H27.5C27.9167 15 28.2708 15.1493 28.5625 15.4479C28.8542 15.7465 29 16.0972 29 16.5V25.5C29 25.9028 28.8542 26.2535 28.5625 26.5521C28.2708 26.8507 27.9167 27 27.5 27H14.5ZM14.5 21H27.5V18H14.5V21Z" fill="#219653"/>
</g>
<rect x="1" y="1" width="40" height="40" rx="20" stroke="#219653" stroke-width="2"/>
</svg>
