<svg width="17" height="16" viewBox="0 0 17 16" fill="#219653" xmlns="http://www.w3.org/2000/svg">
<path d="M10.2083 15.5625C9.91667 15.8542 9.5625 16 9.14583 16C8.72917 16 8.375 15.8542 8.08333 15.5625L0.9375 8.41667C0.803819 8.27879 0.697486 8.11585 0.6185 7.92785C0.5395 7.73984 0.5 7.54861 0.5 7.35417V1.5C0.5 1.0875 0.646875 0.734376 0.940625 0.440626C1.23438 0.146876 1.5875 0 2 0H7.85417C8.05511 0 8.24424 0.0347222 8.42154 0.104167C8.59885 0.173611 8.76199 0.282625 8.91098 0.431208L16.0625 7.58333C16.3542 7.875 16.5 8.22569 16.5 8.63542C16.5 9.04514 16.3542 9.39583 16.0625 9.6875L10.2083 15.5625ZM4 4.75C4.34722 4.75 4.64236 4.62847 4.88542 4.38542C5.12847 4.14236 5.25 3.84722 5.25 3.5C5.25 3.15278 5.12847 2.85764 4.88542 2.61458C4.64236 2.37153 4.34722 2.25 4 2.25C3.65278 2.25 3.35764 2.37153 3.11458 2.61458C2.87153 2.85764 2.75 3.15278 2.75 3.5C2.75 3.84722 2.87153 4.14236 3.11458 4.38542C3.35764 4.62847 3.65278 4.75 4 4.75Z" />
</svg>
