<svg width="24" height="24" viewBox="0 0 24 24" fill="none" xmlns="http://www.w3.org/2000/svg">
<mask id="mask0_131_3569" style="mask-type:alpha" maskUnits="userSpaceOnUse" x="0" y="0" width="24" height="24">
<rect width="24" height="24" fill="#1F1F1F"/>
</mask>
<g mask="url(#mask0_131_3569)">
<path d="M10 12C8.9 12 7.95833 11.6083 7.175 10.825C6.39167 10.0417 6 9.1 6 8C6 6.9 6.39167 5.95833 7.175 5.175C7.95833 4.39167 8.9 4 10 4C11.1 4 12.0417 4.39167 12.825 5.175C13.6083 5.95833 14 6.9 14 8C14 9.1 13.6083 10.0417 12.825 10.825C12.0417 11.6083 11.1 12 10 12ZM3 20C2.71667 20 2.47917 19.9042 2.2875 19.7125C2.09583 19.5208 2 19.2833 2 19V17.2C2 16.65 2.14167 16.1333 2.425 15.65C2.70833 15.1667 3.1 14.8 3.6 14.55C4.45 14.1167 5.40833 13.75 6.475 13.45C7.54167 13.15 8.71667 13 10 13H10.35C10.45 13 10.55 13.0167 10.65 13.05C10.5167 13.35 10.4042 13.6625 10.3125 13.9875C10.2208 14.3125 10.15 14.65 10.1 15C10.0167 15.6 9.99167 16.1042 10.025 16.5125C10.0583 16.9208 10.15 17.4167 10.3 18C10.4 18.35 10.5333 18.6958 10.7 19.0375C10.8667 19.3792 11.05 19.7 11.25 20H3ZM17 18C17.55 18 18.0208 17.8042 18.4125 17.4125C18.8042 17.0208 19 16.55 19 16C19 15.45 18.8042 14.9792 18.4125 14.5875C18.0208 14.1958 17.55 14 17 14C16.45 14 15.9792 14.1958 15.5875 14.5875C15.1958 14.9792 15 15.45 15 16C15 16.55 15.1958 17.0208 15.5875 17.4125C15.9792 17.8042 16.45 18 17 18ZM15.7 19.5C15.5 19.4167 15.3125 19.3292 15.1375 19.2375C14.9625 19.1458 14.7833 19.0333 14.6 18.9L13.525 19.225C13.4083 19.2583 13.3 19.2542 13.2 19.2125C13.1 19.1708 13.0167 19.1 12.95 19L12.35 18C12.2833 17.9 12.2625 17.7917 12.2875 17.675C12.3125 17.5583 12.375 17.4583 12.475 17.375L13.3 16.65C13.2667 16.4167 13.25 16.2 13.25 16C13.25 15.8 13.2667 15.5833 13.3 15.35L12.475 14.625C12.375 14.5417 12.3125 14.4417 12.2875 14.325C12.2625 14.2083 12.2833 14.1 12.35 14L12.95 13C13.0167 12.9 13.1 12.8292 13.2 12.7875C13.3 12.7458 13.4083 12.7417 13.525 12.775L14.6 13.1C14.7833 12.9667 14.9625 12.8542 15.1375 12.7625C15.3125 12.6708 15.5 12.5833 15.7 12.5L15.925 11.4C15.9583 11.2833 16.0167 11.1875 16.1 11.1125C16.1833 11.0375 16.2833 11 16.4 11H17.6C17.7167 11 17.8167 11.0375 17.9 11.1125C17.9833 11.1875 18.0417 11.2833 18.075 11.4L18.3 12.5C18.5 12.5833 18.6875 12.675 18.8625 12.775C19.0375 12.875 19.2167 13 19.4 13.15L20.45 12.775C20.5667 12.725 20.6792 12.725 20.7875 12.775C20.8958 12.825 20.9833 12.9 21.05 13L21.65 14.05C21.7167 14.15 21.7417 14.2583 21.725 14.375C21.7083 14.4917 21.65 14.5917 21.55 14.675L20.7 15.4C20.7333 15.6 20.75 15.8083 20.75 16.025C20.75 16.2417 20.7333 16.45 20.7 16.65L21.525 17.375C21.625 17.4583 21.6875 17.5583 21.7125 17.675C21.7375 17.7917 21.7167 17.9 21.65 18L21.05 19C20.9833 19.1 20.9 19.1708 20.8 19.2125C20.7 19.2542 20.5917 19.2583 20.475 19.225L19.4 18.9C19.2167 19.0333 19.0375 19.1458 18.8625 19.2375C18.6875 19.3292 18.5 19.4167 18.3 19.5L18.075 20.6C18.0417 20.7167 17.9833 20.8125 17.9 20.8875C17.8167 20.9625 17.7167 21 17.6 21H16.4C16.2833 21 16.1833 20.9625 16.1 20.8875C16.0167 20.8125 15.9583 20.7167 15.925 20.6L15.7 19.5Z" fill="#1F1F1F"/>
</g>
</svg>
