<svg width="24" height="24" viewBox="0 0 24 24" fill="none" xmlns="http://www.w3.org/2000/svg">
<mask id="mask0_131_3589" style="mask-type:alpha" maskUnits="userSpaceOnUse" x="0" y="0" width="24" height="24">
<rect width="24" height="24" fill="#1F1F1F"/>
</mask>
<g mask="url(#mask0_131_3589)">
<path d="M17.175 17C16.675 17 16.2917 16.7875 16.025 16.3625C15.7583 15.9375 15.7417 15.5 15.975 15.05L17 13H15C14.45 13 13.9792 12.8042 13.5875 12.4125C13.1958 12.0208 13 11.55 13 11V8C13 7.45 13.1958 6.97917 13.5875 6.5875C13.9792 6.19583 14.45 6 15 6H18C18.55 6 19.0208 6.19583 19.4125 6.5875C19.8042 6.97917 20 7.45 20 8V12.525C20 12.675 19.9875 12.8292 19.9625 12.9875C19.9375 13.1458 19.8833 13.2917 19.8 13.425L18.375 16.25C18.2583 16.4833 18.0917 16.6667 17.875 16.8C17.6583 16.9333 17.425 17 17.175 17ZM8.175 17C7.675 17 7.29167 16.7875 7.025 16.3625C6.75833 15.9375 6.74167 15.5 6.975 15.05L8 13H6C5.45 13 4.97917 12.8042 4.5875 12.4125C4.19583 12.0208 4 11.55 4 11V8C4 7.45 4.19583 6.97917 4.5875 6.5875C4.97917 6.19583 5.45 6 6 6H9C9.55 6 10.0208 6.19583 10.4125 6.5875C10.8042 6.97917 11 7.45 11 8V12.525C11 12.675 10.9875 12.8292 10.9625 12.9875C10.9375 13.1458 10.8833 13.2917 10.8 13.425L9.375 16.25C9.25833 16.4833 9.09167 16.6667 8.875 16.8C8.65833 16.9333 8.425 17 8.175 17Z" fill="#1F1F1F"/>
</g>
</svg>
