<svg width="40" height="40" viewBox="0 0 40 40" fill="none" xmlns="http://www.w3.org/2000/svg">
<path d="M20 25.9L26.1 30.55C26.4 30.7833 26.6917 30.7917 26.975 30.575C27.2583 30.3583 27.35 30.0667 27.25 29.7L24.8 22.15L30.85 17.85C31.15 17.6167 31.25 17.3333 31.15 17C31.05 16.6667 30.8167 16.5 30.45 16.5H23.05L20.7 8.7C20.6 8.33333 20.375 8.15 20.025 8.15C19.675 8.15 19.4333 8.33333 19.3 8.7L16.9 16.5H9.5C9.13333 16.5 8.9 16.6667 8.8 17C8.7 17.3333 8.8 17.6167 9.1 17.85L15.15 22.15L12.75 29.75C12.65 30.1167 12.7417 30.4 13.025 30.6C13.3083 30.8 13.6 30.7833 13.9 30.55L20 25.9ZM20 40C17.1667 40 14.5333 39.4917 12.1 38.475C9.66667 37.4583 7.55 36.05 5.75 34.25C3.95 32.45 2.54167 30.3333 1.525 27.9C0.508333 25.4667 0 22.8333 0 20C0 17.2 0.508333 14.5833 1.525 12.15C2.54167 9.71667 3.95 7.6 5.75 5.8C7.55 4 9.66667 2.58333 12.1 1.55C14.5333 0.516667 17.1667 0 20 0C22.8 0 25.4167 0.516667 27.85 1.55C30.2833 2.58333 32.4 4 34.2 5.8C36 7.6 37.4167 9.71667 38.45 12.15C39.4833 14.5833 40 17.2 40 20C40 22.8333 39.4833 25.4667 38.45 27.9C37.4167 30.3333 36 32.45 34.2 34.25C32.4 36.05 30.2833 37.4583 27.85 38.475C25.4167 39.4917 22.8 40 20 40Z" fill="#FAC420"/>
</svg>
