<svg width="32" height="40" viewBox="0 0 32 40" fill="none" xmlns="http://www.w3.org/2000/svg">
<path d="M13.95 21.9L10 17.95C9.7 17.65 9.33333 17.5 8.9 17.5C8.46667 17.5 8.1 17.65 7.8 17.95C7.5 18.25 7.35 18.6167 7.35 19.05C7.35 19.4834 7.5 19.85 7.8 20.15L12.75 25.1C13.05 25.4 13.4083 25.55 13.825 25.55C14.2417 25.55 14.6 25.4 14.9 25.1L24.15 15.85C24.4167 15.5834 24.55 15.2334 24.55 14.8C24.55 14.3667 24.4167 14.0167 24.15 13.75C23.8833 13.4834 23.5417 13.35 23.125 13.35C22.7083 13.35 22.3667 13.4834 22.1 13.75L13.95 21.9ZM16 39.85C15.8667 39.85 15.7417 39.8417 15.625 39.825C15.5083 39.8084 15.4 39.7834 15.3 39.75C10.8333 38.4167 7.16667 35.675 4.3 31.525C1.43333 27.375 0 22.8167 0 17.85V8.05002C0 7.41669 0.183333 6.84169 0.55 6.32502C0.916667 5.80836 1.38333 5.43336 1.95 5.20002L14.95 0.350024C15.3167 0.216691 15.6667 0.150024 16 0.150024C16.3333 0.150024 16.6833 0.216691 17.05 0.350024L30.05 5.20002C30.6167 5.43336 31.0833 5.80836 31.45 6.32502C31.8167 6.84169 32 7.41669 32 8.05002V17.85C32 22.8167 30.5667 27.375 27.7 31.525C24.8333 35.675 21.1667 38.4167 16.7 39.75L16 39.85Z" fill="#FAC420"/>
</svg>
