<svg width="16" height="16" viewBox="0 0 16 16" fill="none" xmlns="http://www.w3.org/2000/svg">
<path d="M8.00575 16C6.9047 16 5.86806 15.7917 4.89583 15.375C3.92361 14.9583 3.07292 14.3854 2.34375 13.6562C1.61458 12.9271 1.04167 12.0767 0.625 11.105C0.208333 10.1334 0 9.09519 0 7.99046C0 6.88571 0.208333 5.85069 0.625 4.88542C1.04167 3.92014 1.61458 3.07292 2.34375 2.34375C3.07292 1.61458 3.92332 1.04167 4.89496 0.625C5.86661 0.208333 6.90481 0 8.00954 0C9.11429 0 10.1493 0.208333 11.1146 0.625C12.0799 1.04167 12.9271 1.61458 13.6562 2.34375C14.3854 3.07292 14.9583 3.92169 15.375 4.89008C15.7917 5.85849 16 6.89321 16 7.99425C16 9.09531 15.7917 10.1319 15.375 11.1042C14.9583 12.0764 14.3854 12.9271 13.6562 13.6562C12.9271 14.3854 12.0783 14.9583 11.1099 15.375C10.1415 15.7917 9.10679 16 8.00575 16ZM7 14.4167V13C6.72222 13 6.48611 12.9021 6.29167 12.7063C6.09722 12.5104 6 12.275 6 12V11L1.64583 6.64583C1.60417 6.86806 1.56944 7.09028 1.54167 7.3125C1.51389 7.53472 1.5 7.76389 1.5 8C1.5 9.63889 2.02778 11.059 3.08333 12.2604C4.13889 13.4618 5.44444 14.1806 7 14.4167ZM13 12.1458C12.2083 12.9375 11.8438 13.2535 11.9062 13.0938C11.9688 12.934 12.19 12.5552 12.57 11.9572C12.95 11.3593 13.3666 10.6683 13.82 9.88431C14.2733 9.10033 14.5 8.47222 14.5 8C14.5 6.64433 14.1285 5.42694 13.3854 4.34783C12.6424 3.26872 11.6806 2.48611 10.5 2V2.5C10.5 2.9125 10.3531 3.26562 10.0594 3.55937C9.76562 3.85312 9.4125 4 9 4H7V5C7 5.28333 6.90417 5.52083 6.7125 5.7125C6.52083 5.90417 6.28333 6 6 6H5V8H10C10.2833 8 10.5208 8.09583 10.7125 8.2875C10.9042 8.47917 11 8.71667 11 9V11H11.8542C12.1736 11 12.4444 11.1111 12.6667 11.3333C12.8889 11.5556 13 11.8264 13 12.1458Z" fill="#CCCCCC"/>
</svg>
